<?xml version="1.0" encoding="UTF-8"?>
<svg id="Capa_1" xmlns="http://www.w3.org/2000/svg" version="1.1" viewBox="0 0 1584.31 400.24">
  <!-- Generator: Adobe Illustrator 30.0.0, SVG Export Plug-In . SVG Version: 2.1.1 Build 123)  -->
  <defs>
    <style>
      .st0 {
        fill: #3d3d3d;
      }
    </style>
  </defs>
  <path class="st0" d="M1096.99,45.26c17.45-19.71,39.84-40.33,67.37-43.45,138.95-15.79,173.48,179.27,78.26,252.04-35.35,27.02-78.94,31.02-119.03,11.55l-28.61-18.33c-.24,23.54-1.07,47.3,2.22,70.69,2.21,15.76,14.62,49.77,10.22,62.62-7.2,21.02-63.9,21.53-82.84,17.98-44.77-8.39-22.99-47.04-19.55-78.39,2.14-19.52,3.3-44.03,4.1-63.83,1.58-38.92,5.13-135.7-5.46-168.54-6.13-19.02-32.95-35.68-10.41-57.13,8.38-7.98,60.7-26.66,73.21-28.68,31.5-5.1,26.68,20.16,30.51,43.47h0ZM1138.4,53.74c-41.25,7.07-44.8,90.54-38.97,121.93,5.69,30.62,33.11,80.94,70.48,55.43,27.81-18.98,29.8-85.99,24.06-116.01-5.38-28.15-20.02-67.45-55.57-61.35Z"/>
  <path class="st0" d="M758.73,3.89c7.21,5.98,11.64,31.82,10.57,41.38,8.82-8.07,15.46-18.52,25.31-25.62,47.89-34.54,119.28-19.44,150.52,30.59,64.32,103-10.35,264.5-142.6,218.53l-35.25-21.67c1.01,16.12-1.03,32.69.03,48.9,1.52,23.27,12.16,49.09,13.72,70.22.89,12.09-1.52,21.18-13.27,26.2-18.21,7.77-70.66,11.62-87.41.54-4.24-2.8-10.49-12.15-10.95-17.2-1.41-15.74,8.73-48.98,10.05-67.66,3.16-44.7,4.05-98.18,3.47-142.42-.29-21.85-.09-58.28-6.97-78.03-5.57-15.99-20.68-24.72-18.4-43.17,1.57-12.66,15.21-19.35,25.87-24.1,9.19-4.09,42.9-17.11,51.36-18.57,5.9-1.02,19.37-1.69,23.93,2.1l.02-.02ZM844.49,63.96c-12.88-13.22-32.27-14.27-47.1-3.59-31.73,22.86-33.09,105.51-19.08,138.71,11.85,28.08,42.33,54.45,70.18,27.28,30.38-29.63,25.32-132.31-4-162.4Z"/>
  <path class="st0" d="M103.44,3.81c8.57,8.25,8.55,39.98,10.51,41.44,42.85-63.17,134.85-57.52,174.65,6.16,35.77,57.24,29.9,149.47-22.11,195.26-46.3,40.76-108.35,41.53-154.54.39-2.73,24.72-1.41,49.65,2.56,74.35,6.95,43.24,29.68,72.93-33.47,77.58-33,2.43-69.65,5.37-66.97-37.02,1.48-23.43,8.39-50.47,10.04-75.87,2.87-44.2,8.38-159.37-3.52-196.45C14.34,70.18-12.65,52.57,7.14,31.36,12.45,25.67,62.06,6.68,71.93,4.24c7.3-1.8,25.92-5.84,31.52-.44h-.01ZM153.36,53.74c-24.72,4.58-36.5,42.98-39.19,64.69-4.42,35.69,2.04,123.28,54.7,118.74,28.67-2.47,40.77-40.84,42.93-65.07,3.18-35.65-3.54-128.54-58.44-118.37h0Z"/>
  <path class="st0" d="M1403.97,15.99c21.94,20.43,39.83,132.09,52.61,168.17,10.13,28.62,19.69,50.58,36.96,8.92,10.49-25.3,21.23-73.6,18.77-100.63-1.57-17.22-20.18-57.69-16.83-69.11,6.35-21.63,39.68-21.87,58.01-20.01,44.72,4.53,29.9,51.03,22,79.89-22.04,80.51-93.14,252.38-163.79,297.76-27.89,17.91-68.7,29.33-96.73,6.61-18.66-15.12-18.71-51.36-4.22-69.6,17.39-21.89,39.83,1.63,60.97,2.96,35.17,2.21,66.97-24.66,82.88-53.89-7.87,1.53-14.91,2.46-23.06,2.04-43.36-2.21-57.28-45.32-69.81-80.02-13.1-36.27-21.35-79.29-38.25-113.6-7.47-15.17-27.17-34.72-24.6-51.08,1.29-8.21,7.99-12.08,15.11-14.87,23.23-9.07,70.6-11.6,89.98,6.45h0Z"/>
  <path class="st0" d="M606.74,45.97c60.59,64.51,39.27,172.7-37.9,213.44-99.18,52.36-234.12-6.15-229.04-127.33C345.27,1.63,524.04-42.08,606.74,45.97h0ZM532.9,234.47c33.22-35.58-.82-157.7-33.31-188.25-18.36-17.27-44.68-16.12-56.35,7.68-20.21,41.21,5.15,149.23,39.84,179.22,13.23,11.44,37.04,15.03,49.81,1.35h.01Z"/>
</svg>