<?xml version="1.0" encoding="UTF-8"?>
<svg id="Capa_1" xmlns="http://www.w3.org/2000/svg" version="1.1" viewBox="0 0 221.21 231.96">
  <!-- Generator: Adobe Illustrator 30.0.0, SVG Export Plug-In . SVG Version: 2.1.1 Build 123)  -->
  <defs>
    <style>
      .st0 {
        fill: #6d4d45;
      }
    </style>
  </defs>
  <path class="st0" d="M216.46,122.68l-.08-.18c-10.28-21.38.07-29.23-2.22-50.11-2.64-24.02-18.45-48.02-38.51-61.18-12.83-8.42-28.79-12.75-44.1-10.71-16.38,2.18-27.21,13.26-41.73,19.8-5.11,2.36-10.26,3.47-15.43,3.7-8.03.22-16.21-.4-24.05,1.76C16,35.25-7.15,73.79,2.02,105.22c3.42,11.72,8.18,22.54,14.72,32.41,6.29,9.49,6.46,19.45,5.8,30.75-2.14,36.92,20.3,60.27,58.09,63.35,32.95,2.68,45.69-18.62,72.22-29.66,23.38-9.72,48.3,1.48,62.42-24.15,8.25-14.97,7.2-39.82,1.2-55.23h0ZM93.84,96.18c6.71,0,6.7,10.41,0,10.41s-6.7-10.41,0-10.41ZM100.08,137.83c-6.71,0-6.7-10.41,0-10.41s6.7,10.41,0,10.41ZM121.49,123.79c-.61,1.43-1.76,2.62-3.32,2.91-3.28.62-6.62,1.03-9.77-.35-3.41-1.5-5.57-4.75-5.78-8.46-.01-.17,0-.35,0-.52-1.71-5.45,1-11.29,6.02-13.93,4.8-2.52,11.05-1.15,13.79,3.35,2.17,1.9,3.63,4.67,3.77,7.69.17,3.79-1.78,7.18-4.71,9.32h0ZM125.31,98.62c-6.71,0-6.7-10.41,0-10.41s6.7,10.41,0,10.41ZM134.3,129.58c-6.71,0-6.7-10.41,0-10.41s6.7,10.41,0,10.41Z"/>
</svg>