<svg version="1.1" xmlns="http://www.w3.org/2000/svg" viewBox="650 350 760 520">
<defs>
	<linearGradient id="Gradient1" gradientUnits="userSpaceOnUse" x1="931.83" y1="512.784" x2="927.23" y2="530.978">
		<stop class="stop0" offset="0" stop-opacity="1" stop-color="rgb(136,134,133)"/>
		<stop class="stop1" offset="1" stop-opacity="1" stop-color="rgb(165,161,162)"/>
	</linearGradient>
	<linearGradient id="Gradient2" gradientUnits="userSpaceOnUse" x1="1112.44" y1="515.569" x2="1116.98" y2="528.633">
		<stop class="stop0" offset="0" stop-opacity="1" stop-color="rgb(127,125,125)"/>
		<stop class="stop1" offset="1" stop-opacity="1" stop-color="rgb(162,159,159)"/>
	</linearGradient>
</defs>
<path transform="translate(0,0)" fill="rgb(42,41,41)" d="M 999.273 674.649 C 1038.76 637.981 1097.14 660.516 1102 713.597 C 1104.91 743.203 1092.39 772.338 1063.74 784.103 C 1041.28 793.328 1017.97 792.138 999.077 776.083 C 998.906 792.887 998.556 809.793 998.817 826.584 C 998.958 835.593 1000.37 842.788 1009.86 845.317 L 1006.97 848.103 C 990.292 847.963 973.35 848.151 956.648 848.186 C 960.424 846.31 964.55 846.017 968.34 844.446 C 971.299 843.219 973.743 841.107 974.87 838.055 C 977.885 829.886 977.357 707.078 976.471 689.643 C 976.288 686.025 976.263 680.832 974.385 677.62 C 971.174 672.128 962.594 671.038 956.929 669.761 C 975.18 666.964 981.442 664.596 998.97 657.954 L 999.273 674.649 z"/>
<path transform="translate(0,0)" fill="rgb(252,251,250)" d="M 1029 665.279 C 1077.23 661.165 1085.16 724.261 1072.14 758.032 C 1067.3 770.599 1059.24 778.071 1047.05 783.121 C 1028.11 788.708 1011.2 781.948 999.072 767.014 L 999.056 681.502 C 1008.8 672.661 1016.23 667.874 1029 665.279 z"/>
<path transform="translate(0,0)" fill="rgb(42,41,41)" d="M 1191.03 657.228 C 1251.3 652.487 1275.81 721.894 1243.65 766.046 C 1223.78 793.322 1181.09 797.623 1154.25 776.854 C 1154.23 789.396 1153.66 802.044 1153.8 814.574 C 1153.94 826.99 1151.65 840.328 1165.25 845.595 C 1168.82 845.658 1169.52 845.588 1172.77 846.974 C 1169.77 848.826 1119.41 848.091 1111.75 848.078 C 1118.06 845.348 1129.5 845.837 1130.74 836.384 C 1132.18 825.362 1131.96 814.399 1131.9 803.268 C 1131.69 764.006 1132.44 724.654 1131.56 685.413 C 1131.38 677.176 1126.44 672.086 1118.28 671.609 C 1116.6 671.51 1117.12 671.43 1115.84 670.318 C 1129.63 666.43 1140.83 663.314 1154.02 657.836 L 1154.34 674.541 C 1165.07 666.016 1177.63 660.091 1191.03 657.228 z"/>
<path transform="translate(0,0)" fill="rgb(252,251,250)" d="M 1187.86 665.333 C 1234.32 662.863 1240.55 731.601 1225.36 762.462 C 1219.41 774.552 1212.14 779.904 1199.87 783.986 C 1195.94 784.698 1191.95 785 1187.96 784.887 C 1174.7 784.62 1163.26 777.683 1154.34 768.297 C 1152.95 745.352 1154.24 706.261 1154.27 682.143 C 1164.58 672.062 1173.96 667.589 1187.86 665.333 z"/>
<path transform="translate(0,0)" fill="rgb(42,41,41)" d="M 670.638 781.302 C 673.57 779.744 679.343 775.664 679.527 772.057 C 682.212 719.444 680.382 666.035 680.549 613.245 C 680.59 600.184 673.823 598.357 663.459 596.131 L 663.601 595.035 C 670.308 592.657 693.506 594.297 701.715 594.22 C 735.398 593.902 776.122 591.519 798.25 622.4 C 808.774 637.088 808.997 660.118 801.329 676.301 C 783.12 711.599 736.716 709.974 703.397 709.855 C 703.382 721.55 701.328 764.581 706.365 776.231 C 707.449 778.739 718.685 782.309 722.406 783.532 C 718.578 784.664 680.351 784.016 672.485 784.289 L 670.638 781.302 z"/>
<path transform="translate(0,0)" fill="rgb(252,251,250)" d="M 703.858 600.068 C 725.413 599.35 746.827 597.007 763.985 612.847 C 786.422 633.561 786.678 668.104 766.322 690.165 C 748.366 706.605 726.201 704.931 703.706 704.309 C 704.154 669.809 702.868 634.494 703.858 600.068 z"/>
<path transform="translate(0,0)" fill="rgb(42,41,41)" d="M 867.517 657.149 C 891.179 652.386 915.576 660.705 931.398 678.933 C 947.22 697.16 952.027 722.485 943.983 745.242 C 935.94 767.999 916.287 784.678 892.525 788.915 C 856.349 795.366 821.718 771.501 814.866 735.398 C 808.014 699.295 831.493 664.402 867.517 657.149 z"/>
<path transform="translate(0,0)" fill="rgb(252,251,250)" d="M 875.875 661.165 C 911.135 659.329 923.372 693.87 923.008 723.466 C 922.681 750.115 915.62 777.784 886.977 785.058 C 862.683 785.513 848.56 770.56 842.892 747.892 C 834.542 714.497 837.616 671.752 875.875 661.165 z"/>
<path transform="translate(0,0)" fill="rgb(109,107,106)" d="M 1230.98 462.159 L 1233.48 462.414 C 1233.41 462.746 1233.34 463.078 1233.27 463.411 C 1209.7 515.217 1155.07 547.392 1099.59 552.937 C 1091.09 553.787 1085.22 553.491 1078.12 554.952 C 1067.55 557.129 1058.17 564.241 1049.51 569.785 L 1049.13 570.23 L 1048.42 569.924 L 1056.9 561.426 C 1059.13 550.001 1063.04 538.968 1068.5 528.685 C 1089.44 489.439 1124.15 465.86 1169.52 465.859 C 1190.52 465.859 1210.93 468.256 1230.98 462.159 z"/>
<path transform="translate(0,0)" fill="rgb(252,251,250)" d="M 1215.8 475.463 L 1216.62 476.379 C 1185.97 523.045 1131.84 541.826 1080.41 549.487 C 1078.5 549.77 1068.53 555.311 1065.3 556.658 L 1064.38 555.696 C 1064.24 552.505 1066.58 549.921 1068.59 547.354 C 1113.94 489.582 1149.03 484.22 1215.8 475.463 z"/>
<path transform="translate(0,0)" fill="url(#Gradient2)" d="M 1144.08 505.123 L 1145.31 505.288 C 1145.05 505.672 1087.62 540.641 1084.66 541.795 C 1084.31 541.529 1083.96 541.263 1083.61 540.997 C 1101.75 523.473 1119.85 512.484 1144.08 505.123 z"/>
<path transform="translate(0,0)" fill="rgb(109,107,106)" d="M 813.373 461.198 C 855.013 473.886 896.982 454.108 938.16 483.335 C 964.298 501.886 983.166 528.774 989.19 560.304 C 992.625 563.487 997.708 567.529 999.337 571.678 C 975.314 552.402 967.644 554.792 938.628 551.556 C 899.308 547.171 860.097 525.832 834.749 495.531 C 829.922 489.76 813.373 467.816 813.373 461.198 z"/>
<path transform="translate(0,0)" fill="rgb(252,251,250)" d="M 829.219 474.847 C 845.138 478.817 865.931 479.019 884.714 483.453 C 924.218 492.779 963.152 521.997 984.183 556.409 C 977.567 555.209 970.075 549.569 963.676 548.728 C 907.613 541.36 864.317 522.037 829.219 474.847 z"/>
<path transform="translate(0,0)" fill="url(#Gradient1)" d="M 898.453 504.82 C 919.807 507.078 945.124 524.9 959.503 540.283 C 951.19 538.363 929.934 522.849 921.566 517.935 C 914.161 513.587 906.264 509.053 898.453 504.82 z"/>
<path transform="translate(0,0)" fill="rgb(42,41,41)" d="M 1258.02 662.401 C 1263.96 661.794 1306.51 661.839 1311.49 663.099 L 1311.2 664.232 C 1309.5 664.581 1307.67 664.892 1306.05 665.545 C 1303.98 666.38 1302.06 668.43 1301.27 670.5 C 1297.74 679.685 1330.85 746.792 1336.56 759.49 C 1347.9 735.762 1358.09 710.057 1368.11 685.656 C 1374.65 669.735 1369.66 667.022 1355.03 663.131 C 1368.87 661.798 1382.94 662.499 1396.85 662.846 C 1391.74 664.878 1383.59 667.06 1380.89 672.105 C 1368.85 694.527 1359.6 719.248 1349.41 742.744 C 1336.96 772.542 1318.19 843.11 1280.86 846.214 C 1266.96 847.37 1271.07 830.364 1271.26 820.782 C 1305.8 831.807 1312.76 818.506 1325.01 788.522 C 1308.21 752.123 1291.77 715.358 1275.49 678.723 C 1272.54 672.064 1266.85 667.135 1260.05 664.765 C 1258.31 664.156 1259.01 664.539 1258.02 662.401 z"/>
<path transform="translate(0,0)" fill="rgb(109,107,106)" d="M 1023.27 359.948 C 1048.79 381.373 1059.54 435.737 1031.64 459.053 C 1028.79 461.434 1025.69 465.456 1023.35 468.369 C 1012.12 452.36 1001.22 449.89 998.747 424.549 C 996.232 398.775 1007.81 379.147 1023.27 359.948 z"/>
<path transform="translate(0,0)" fill="rgb(252,251,250)" d="M 1023.37 406.778 C 1027.94 413.785 1026.24 444.139 1024.35 452.878 L 1023.16 452.858 C 1019.99 448.482 1022.86 414.172 1023.37 406.778 z"/>
<path transform="translate(0,0)" fill="rgb(109,107,106)" d="M 918.558 443.359 C 981.916 438.433 1023.69 473.305 1020.83 538.354 C 1020.01 536.777 1019.82 536.114 1019.35 534.408 C 1008.1 493.255 987.868 467.718 947.351 452.206 C 937.723 448.52 929.543 449.586 919.624 443.97 L 918.558 443.359 z"/>
<path transform="translate(0,0)" fill="rgb(109,107,106)" d="M 1113.04 443.417 C 1118.14 443.051 1125.09 443.155 1130.34 443.073 C 1116.8 449.125 1102.29 450.025 1086.89 457.824 C 1057.09 472.923 1042.53 491.446 1031.79 522.017 L 1027.54 536.262 L 1027.36 534.138 C 1024.74 502.388 1035.68 474.679 1063.02 457.141 C 1079.02 446.883 1094.72 444.767 1113.04 443.417 z"/>
<path transform="translate(0,0)" fill="rgb(109,107,106)" d="M 1245.47 501.968 C 1245.51 502.248 1245.49 503.516 1245.35 503.718 C 1215.31 549.05 1161.77 577.618 1107.07 574.559 C 1094.63 573.863 1084.56 571.431 1072.71 567.906 C 1071.35 567.457 1069.8 566.808 1068.44 566.285 L 1067.88 564.833 C 1069.2 564.35 1108.44 567.107 1117.18 566.438 C 1166.81 562.84 1212.97 539.644 1245.47 501.968 z"/>
<path transform="translate(0,0)" fill="rgb(109,107,106)" d="M 801.897 503.58 C 804.553 504.957 808.329 509.009 810.415 511.165 C 847.118 549.111 901.624 570.826 954.482 566.2 C 960.81 565.646 971.181 564.614 977.606 565.114 L 978.577 566.278 L 976.791 567.969 C 904.873 585.132 845.32 564.674 801.897 503.58 z"/>
<path transform="translate(0,0)" fill="rgb(109,107,106)" d="M 1109.9 454.042 L 1110.03 454.137 C 1110.28 455.433 1093.32 468.526 1090.54 471.131 C 1057.6 501.929 1041.75 533.717 1031.78 576.846 L 1031.43 576.918 C 1030.28 570.012 1032.85 549.726 1035.02 542.8 C 1048.48 500.025 1072.57 475.404 1109.9 454.042 z"/>
<path transform="translate(0,0)" fill="rgb(109,107,106)" d="M 935.856 453.733 C 947.639 455.764 972.76 477.272 980.932 487.199 C 1004.64 515.991 1017.31 540.355 1014.59 578.295 C 1014.07 574.872 1013.89 570.527 1013.29 567.465 C 1004.12 520.704 973.17 481.112 935.856 453.733 z"/>
<path transform="translate(0,0)" fill="rgb(109,107,106)" d="M 846.603 418.686 C 848.425 417.578 850.704 417.547 852.556 418.604 C 854.407 419.661 855.539 421.64 855.511 423.772 C 855.483 425.903 854.3 427.852 852.421 428.86 C 849.623 430.362 846.137 429.362 844.56 426.605 C 842.983 423.848 843.889 420.336 846.603 418.686 z"/>
<path transform="translate(0,0)" fill="rgb(109,107,106)" d="M 1194.59 418.606 C 1196.5 417.601 1198.8 417.732 1200.59 418.946 C 1202.37 420.16 1203.34 422.26 1203.11 424.405 C 1202.87 426.55 1201.47 428.391 1199.47 429.192 C 1196.59 430.346 1193.3 429.038 1192 426.218 C 1190.7 423.397 1191.84 420.052 1194.59 418.606 z"/>
<path transform="translate(0,0)" fill="rgb(109,107,106)" d="M 1254.77 509.498 C 1256.67 508.234 1259.23 508.744 1260.51 510.639 C 1261.78 512.534 1261.28 515.1 1259.39 516.382 C 1257.49 517.673 1254.9 517.172 1253.62 515.264 C 1252.34 513.356 1252.85 510.77 1254.77 509.498 z"/>
<path transform="translate(0,0)" fill="rgb(109,107,106)" d="M 883.647 403.563 C 885.567 402.467 888.009 403.076 889.19 404.944 C 890.371 406.813 889.873 409.28 888.06 410.543 C 886.812 411.413 885.187 411.527 883.83 410.84 C 882.472 410.154 881.602 408.777 881.564 407.256 C 881.526 405.735 882.326 404.317 883.647 403.563 z"/>
<path transform="translate(0,0)" fill="rgb(109,107,106)" d="M 786.819 509.44 C 787.999 508.437 789.645 508.186 791.07 508.793 C 792.495 509.399 793.456 510.758 793.551 512.304 C 793.647 513.85 792.862 515.317 791.523 516.095 C 789.691 517.159 787.35 516.649 786.127 514.919 C 784.904 513.189 785.205 510.811 786.819 509.44 z"/>
<path transform="translate(0,0)" fill="rgb(109,107,106)" d="M 1158.31 403.543 C 1160.23 402.636 1162.53 403.345 1163.6 405.178 C 1164.67 407.011 1164.16 409.357 1162.42 410.581 C 1161.16 411.473 1159.5 411.577 1158.14 410.85 C 1156.78 410.122 1155.94 408.688 1155.98 407.143 C 1156.01 405.597 1156.92 404.205 1158.31 403.543 z"/>
<path transform="translate(0,0)" fill="rgb(38,37,40)" d="M 672.485 784.289 C 669.04 784.365 666.135 784.831 663.19 783.265 C 665.457 781.445 667.383 781.742 670.638 781.302 L 672.485 784.289 z"/>
<path transform="translate(0,0)" fill="rgb(38,37,40)" d="M 1009.86 845.317 C 1012.73 845.554 1015.12 845.372 1017.33 847.029 C 1013.72 848.553 1010.92 848.164 1006.97 848.103 L 1009.86 845.317 z"/>
</svg>